<svg width="306" height="81" viewBox="0 0 306 81" fill="none" xmlns="http://www.w3.org/2000/svg">
<rect x="6" y="25.5205" width="62" height="51.0411" fill="#FAC723"/>
<rect x="238" y="25.5205" width="62" height="51.0411" fill="#FAC723"/>
<rect width="33.2183" height="40.2998" transform="matrix(-0.559012 -0.829159 -0.76946 0.638695 270 50.8446)" fill="#EBBC27"/>
<rect width="21" height="25.5205" transform="matrix(-1 0 0 1 239 51.0413)" fill="#204A70"/>
<rect width="33.2183" height="40.2998" transform="matrix(0.559012 -0.829159 0.76946 0.638695 37 50.8446)" fill="#EBBC27"/>
<rect x="68" y="51.0413" width="21" height="25.5205" fill="#204A70"/>
<rect x="37" width="232" height="51.0411" fill="#FCD94F"/>
<path d="M23 51.0411L5.75 76.9862L5.75 25.0959L23 51.0411Z" fill="#204A70"/>
<path d="M283 51.0411L300.25 25.0959L300.25 76.9863L283 51.0411Z" fill="#204A70"/>
<path d="M89.4313 35H86.0073C84.4286 35 83.2019 34.5627 82.3273 33.688C81.4739 32.8133 81.0473 31.5973 81.0473 30.04V19.384C81.0473 17.8053 81.4739 16.5893 82.3273 15.736C83.2019 14.8613 84.4286 14.424 86.0073 14.424H89.4313C91.0099 14.424 92.2259 14.8613 93.0793 15.736C93.9539 16.5893 94.3913 17.8053 94.3913 19.384V20.536C94.3913 20.92 94.2099 21.112 93.8473 21.112H91.8313C91.4686 21.112 91.2873 20.92 91.2873 20.536V19.512C91.2873 17.9333 90.5193 17.144 88.9833 17.144H86.4553C84.9193 17.144 84.1513 17.9333 84.1513 19.512V29.912C84.1513 31.4907 84.9193 32.28 86.4553 32.28H88.9833C90.5193 32.28 91.2873 31.4907 91.2873 29.912V27.032C91.2873 26.8187 91.1699 26.712 90.9353 26.712H88.3433C87.9806 26.712 87.7993 26.5307 87.7993 26.168V24.536C87.7993 24.1733 87.9806 23.992 88.3433 23.992H93.7193C94.1673 23.992 94.3913 24.216 94.3913 24.664V30.04C94.3913 31.5973 93.9539 32.8133 93.0793 33.688C92.2046 34.5627 90.9886 35 89.4313 35ZM104.31 35H103.062C101.484 35 100.257 34.5627 99.3823 33.688C98.5289 32.8133 98.1023 31.5973 98.1023 30.04V23.64C98.1023 22.0613 98.5289 20.8453 99.3823 19.992C100.257 19.1173 101.484 18.68 103.062 18.68H110.23C110.614 18.68 110.806 18.8613 110.806 19.224V34.456C110.806 34.8187 110.614 35 110.23 35H108.214C107.852 35 107.67 34.8187 107.67 34.456V33.304H107.542C107.03 34.4347 105.953 35 104.31 35ZM107.67 29.56V21.72C107.67 21.5067 107.553 21.4 107.318 21.4H103.51C101.974 21.4 101.206 22.1893 101.206 23.768V29.912C101.206 31.4907 101.974 32.28 103.51 32.28H105.046C106.796 32.28 107.67 31.3733 107.67 29.56ZM117.357 35H115.341C114.979 35 114.797 34.8187 114.797 34.456V19.224C114.797 18.8613 114.979 18.68 115.341 18.68H117.357C117.72 18.68 117.901 18.8613 117.901 19.224V20.376H118.029C118.648 19.2453 119.779 18.68 121.421 18.68H122.477C124.333 18.68 125.656 19.384 126.445 20.792C126.787 20.1093 127.309 19.5867 128.013 19.224C128.717 18.8613 129.475 18.68 130.285 18.68H131.309C132.867 18.68 134.051 19.1173 134.861 19.992C135.693 20.8453 136.109 22.0613 136.109 23.64V34.456C136.109 34.8187 135.928 35 135.565 35H133.517C133.155 35 132.973 34.8187 132.973 34.456V23.768C132.973 22.1893 132.205 21.4 130.669 21.4H129.741C127.971 21.4 127.085 22.328 127.085 24.184V34.456C127.085 34.8187 126.893 35 126.509 35H124.493C124.131 35 123.949 34.8187 123.949 34.456V23.768C123.949 22.1893 123.181 21.4 121.645 21.4H120.525C118.776 21.4 117.901 22.3067 117.901 24.12V34.456C117.901 34.8187 117.72 35 117.357 35ZM151.537 35H144.625C143.046 35 141.819 34.5627 140.945 33.688C140.091 32.8133 139.665 31.5973 139.665 30.04V23.64C139.665 22.0613 140.091 20.8453 140.945 19.992C141.819 19.1173 143.046 18.68 144.625 18.68H147.249C148.827 18.68 150.054 19.1173 150.929 19.992C151.803 20.8453 152.241 22.0613 152.241 23.64V27.704C152.241 28.088 152.049 28.28 151.665 28.28H143.089C142.854 28.28 142.737 28.3867 142.737 28.6V29.976C142.737 31.5333 143.515 32.312 145.073 32.312H151.537C151.921 32.312 152.113 32.504 152.113 32.888V34.488C152.113 34.8293 151.921 35 151.537 35ZM143.089 26.104H148.817C149.03 26.104 149.137 25.9973 149.137 25.784V23.736C149.137 22.9253 148.955 22.3387 148.593 21.976C148.23 21.592 147.643 21.4 146.833 21.4H145.073C144.262 21.4 143.675 21.592 143.313 21.976C142.95 22.3387 142.769 22.9253 142.769 23.736V25.784C142.769 25.9973 142.875 26.104 143.089 26.104ZM170.847 35H168.031C166.452 35 165.226 34.5627 164.351 33.688C163.498 32.8133 163.071 31.5973 163.071 30.04V23.64C163.071 22.0613 163.498 20.8453 164.351 19.992C165.226 19.1173 166.452 18.68 168.031 18.68H170.847C172.404 18.68 173.62 19.1173 174.495 19.992C175.391 20.8453 175.839 22.0613 175.839 23.64V30.04C175.839 31.5973 175.391 32.8133 174.495 33.688C173.62 34.5627 172.404 35 170.847 35ZM168.479 32.28H170.431C171.967 32.28 172.735 31.5013 172.735 29.944V23.736C172.735 22.1787 171.967 21.4 170.431 21.4H168.479C167.668 21.4 167.082 21.592 166.719 21.976C166.356 22.3387 166.175 22.9253 166.175 23.736V29.944C166.175 30.7547 166.356 31.352 166.719 31.736C167.082 32.0987 167.668 32.28 168.479 32.28ZM178.492 18.68H180.636C180.977 18.68 181.18 18.8613 181.244 19.224L184.572 32.088H184.796L188.06 19.224C188.145 18.8613 188.369 18.68 188.732 18.68H190.844C191.228 18.68 191.356 18.8613 191.228 19.224L186.908 34.424C186.823 34.808 186.588 35 186.204 35H183.132C182.748 35 182.513 34.808 182.428 34.424L178.108 19.224C178.023 18.8613 178.151 18.68 178.492 18.68ZM205.412 35H198.5C196.921 35 195.694 34.5627 194.82 33.688C193.966 32.8133 193.54 31.5973 193.54 30.04V23.64C193.54 22.0613 193.966 20.8453 194.82 19.992C195.694 19.1173 196.921 18.68 198.5 18.68H201.124C202.702 18.68 203.929 19.1173 204.804 19.992C205.678 20.8453 206.116 22.0613 206.116 23.64V27.704C206.116 28.088 205.924 28.28 205.54 28.28H196.964C196.729 28.28 196.612 28.3867 196.612 28.6V29.976C196.612 31.5333 197.39 32.312 198.948 32.312H205.412C205.796 32.312 205.988 32.504 205.988 32.888V34.488C205.988 34.8293 205.796 35 205.412 35ZM196.964 26.104H202.692C202.905 26.104 203.012 25.9973 203.012 25.784V23.736C203.012 22.9253 202.83 22.3387 202.468 21.976C202.105 21.592 201.518 21.4 200.708 21.4H198.948C198.137 21.4 197.55 21.592 197.188 21.976C196.825 22.3387 196.644 22.9253 196.644 23.736V25.784C196.644 25.9973 196.75 26.104 196.964 26.104ZM212.201 35H210.185C209.822 35 209.641 34.8187 209.641 34.456V19.224C209.641 18.8613 209.822 18.68 210.185 18.68H212.201C212.564 18.68 212.745 18.8613 212.745 19.224V20.44H212.873C213.086 19.9067 213.492 19.48 214.089 19.16C214.708 18.84 215.39 18.68 216.137 18.68H217.321C217.684 18.68 217.865 18.8613 217.865 19.224V20.888C217.865 21.2933 217.684 21.464 217.321 21.4H215.401C213.63 21.4 212.745 22.3707 212.745 24.312V34.456C212.745 34.8187 212.564 35 212.201 35ZM220.424 19.256V14.968C220.424 14.6053 220.605 14.424 220.968 14.424H223.304C223.666 14.424 223.848 14.6053 223.848 14.968V19.256C223.848 21.7733 223.688 24.472 223.368 27.352C223.304 27.736 223.112 27.928 222.792 27.928H221.48C221.16 27.928 220.968 27.736 220.904 27.352C220.584 24.472 220.424 21.7733 220.424 19.256ZM223.752 30.552V34.456C223.752 34.8187 223.581 35 223.24 35H221.096C220.754 35 220.584 34.808 220.584 34.424V30.552C220.584 30.2107 220.754 30.04 221.096 30.04H223.24C223.581 30.04 223.752 30.2107 223.752 30.552Z" fill="#293241"/>
</svg>
