<svg width="92" height="92" viewBox="0 0 92 92" fill="none" xmlns="http://www.w3.org/2000/svg">
<path d="M58.8836 31.1528C55.1747 34.8617 50.7482 39.6807 50.2049 45.9522C50.7482 52.2237 55.1748 57.0427 58.8836 60.7516C63.9064 65.0799 67.0867 71.4874 67.0867 78.6381C67.0867 78.6507 67.0858 78.6631 67.0856 78.6756H67.0867V88.7426H19.8821V78.6756H19.8831C19.8831 78.6631 19.8821 78.6507 19.8821 78.6381C19.8821 71.4874 23.0624 65.0799 28.0852 60.7516C31.7941 57.0427 36.2205 52.2237 36.7639 45.9522C36.2205 39.6807 31.7939 34.8617 28.0852 31.1528C23.0624 26.8245 19.8821 20.417 19.8821 13.2663V3.04786H67.0867V13.2663C67.0867 20.417 63.9064 26.8245 58.8836 31.1528Z" fill="#F9E7C0"/>
<path d="M43.4844 76.8171C45.2412 76.8171 54.1715 86.5368 54.1715 86.5368H32.7973C32.7973 86.5368 41.7276 76.8171 43.4844 76.8171ZM42.541 63.9114C42.4005 63.9096 42.261 63.9357 42.1307 63.9882C42.0003 64.0407 41.8817 64.1186 41.7817 64.2173C41.6817 64.316 41.6023 64.4336 41.5481 64.5633C41.4939 64.6929 41.466 64.832 41.466 64.9726C41.466 65.1131 41.4939 65.2522 41.5481 65.3819C41.6023 65.5115 41.6817 65.6291 41.7817 65.7278C41.8817 65.8266 42.0003 65.9044 42.1307 65.9569C42.261 66.0095 42.4005 66.0355 42.541 66.0337C42.8201 66.0301 43.0864 65.9167 43.2825 65.7181C43.4785 65.5195 43.5884 65.2516 43.5884 64.9726C43.5884 64.6935 43.4785 64.4257 43.2825 64.2271C43.0864 64.0285 42.8201 63.9151 42.541 63.9114ZM43.6023 67.6847C43.4617 67.6829 43.3223 67.709 43.1919 67.7615C43.0616 67.814 42.943 67.8918 42.8429 67.9906C42.7429 68.0893 42.6635 68.2069 42.6093 68.3365C42.5551 68.4662 42.5272 68.6053 42.5272 68.7458C42.5272 68.8864 42.5551 69.0255 42.6093 69.1551C42.6635 69.2848 42.7429 69.4024 42.8429 69.5011C42.943 69.5998 43.0616 69.6777 43.1919 69.7302C43.3223 69.7827 43.4617 69.8088 43.6023 69.807C43.8813 69.8033 44.1477 69.6899 44.3437 69.4913C44.5398 69.2927 44.6497 69.0249 44.6497 68.7458C44.6497 68.4668 44.5398 68.1989 44.3437 68.0003C44.1477 67.8017 43.8813 67.6883 43.6023 67.6847ZM41.0309 74.0189C40.8904 74.017 40.7509 74.0431 40.6206 74.0956C40.4902 74.1481 40.3716 74.226 40.2716 74.3247C40.1716 74.4234 40.0922 74.541 40.038 74.6707C39.9838 74.8003 39.9559 74.9395 39.9559 75.08C39.9559 75.2205 39.9838 75.3597 40.038 75.4893C40.0922 75.619 40.1716 75.7366 40.2716 75.8353C40.3716 75.934 40.4902 76.0119 40.6206 76.0644C40.7509 76.1169 40.8904 76.143 41.0309 76.1411C41.31 76.1375 41.5764 76.0241 41.7724 75.8255C41.9684 75.6269 42.0784 75.3591 42.0784 75.08C42.0784 74.8009 41.9684 74.5331 41.7724 74.3345C41.5764 74.1359 41.31 74.0225 41.0309 74.0189ZM44.1862 59.0744C44.0457 59.0726 43.9062 59.0987 43.7759 59.1512C43.6456 59.2037 43.5269 59.2816 43.4269 59.3803C43.3269 59.479 43.2475 59.5966 43.1933 59.7263C43.1391 59.8559 43.1112 59.995 43.1112 60.1356C43.1112 60.2761 43.1391 60.4152 43.1933 60.5449C43.2475 60.6745 43.3269 60.7921 43.4269 60.8908C43.5269 60.9896 43.6456 61.0674 43.7759 61.1199C43.9062 61.1724 44.0457 61.1985 44.1862 61.1967C44.4653 61.1931 44.7317 61.0797 44.9277 60.8811C45.1237 60.6825 45.2337 60.4146 45.2337 60.1356C45.2337 59.8565 45.1237 59.5887 44.9277 59.3901C44.7317 59.1915 44.4653 59.0781 44.1862 59.0744ZM25.9203 21.3697C25.9203 25.7749 30.903 29.7225 33.9974 32.389C36.2823 34.6739 40.1889 38.9978 40.1889 44.4258C40.1889 44.6076 40.1975 44.7817 40.2117 44.9506C40.3266 49.3848 40.8944 54.3298 42.3029 56.0943C42.19 56.2326 42.1137 56.3971 42.0812 56.5727C42.0487 56.7482 42.061 56.9292 42.1171 57.0987C42.1731 57.2683 42.271 57.4209 42.4017 57.5426C42.5324 57.6642 42.6916 57.7509 42.8647 57.7947C43.0379 57.8384 43.2192 57.8378 43.392 57.7928C43.5648 57.7478 43.7235 57.66 43.8533 57.5374C43.9831 57.4148 44.0799 57.2615 44.1347 57.0916C44.1895 56.9216 44.2006 56.7406 44.1668 56.5653C46.058 55.4021 46.7139 49.3591 46.775 44.036C47.0984 39.4534 50.7878 34.5726 52.9713 32.389C56.0657 29.7225 61.0485 25.7751 61.0485 21.3697C61.0485 19.2266 25.9203 19.2266 25.9203 21.3697ZM44.7037 71.997C44.5632 71.9952 44.4238 72.0213 44.2934 72.0738C44.1631 72.1263 44.0444 72.2042 43.9444 72.3029C43.8444 72.4016 43.765 72.5192 43.7108 72.6488C43.6566 72.7785 43.6287 72.9176 43.6287 73.0582C43.6287 73.1987 43.6566 73.3378 43.7108 73.4675C43.765 73.5971 43.8444 73.7147 43.9444 73.8134C44.0444 73.9121 44.1631 73.99 44.2934 74.0425C44.4238 74.095 44.5632 74.1211 44.7037 74.1193C44.9828 74.1157 45.2492 74.0023 45.4452 73.8037C45.6412 73.605 45.7512 73.3372 45.7512 73.0582C45.7512 72.7791 45.6412 72.5113 45.4452 72.3126C45.2492 72.114 44.9828 72.0006 44.7037 71.997Z" fill="#FFB636"/>
<path d="M67.0869 5.68298H19.8821C18.4266 5.68298 17.2468 4.50315 17.2468 3.04768C17.2468 1.59221 18.4266 0.412384 19.8821 0.412384H67.0869C68.5423 0.412384 69.7222 1.59221 69.7222 3.04768C69.7222 4.50315 68.5422 5.68298 67.0869 5.68298ZM69.7222 88.7426C69.7222 87.2872 68.5423 86.1075 67.0869 86.1075H19.8821C18.4266 86.1075 17.2468 87.2872 17.2468 88.7426C17.2468 90.1981 18.4266 91.3777 19.8821 91.3777H67.0869C68.5422 91.3777 69.7222 90.1981 69.7222 88.7426Z" fill="#68442A"/>
<path d="M61.0485 20.7417C61.0485 22.3725 53.1848 23.6947 43.4844 23.6947C33.784 23.6947 25.9203 22.3725 25.9203 20.7417C25.9203 19.1108 33.784 17.7887 43.4844 17.7887C53.1848 17.7887 61.0485 19.1108 61.0485 20.7417Z" fill="#FFD469"/>
</svg>
