<svg width="269" height="180" viewBox="0 0 269 180" fill="none" xmlns="http://www.w3.org/2000/svg">
<path d="M0 140.143C0 138.486 1.34315 137.143 3 137.143H39.4737C41.1305 137.143 42.4737 138.486 42.4737 140.143V177C42.4737 178.657 41.1305 180 39.4737 180H3C1.34315 180 0 178.657 0 177V140.143Z" fill="#A1C65D"/>
<rect x="5.66315" y="142.857" width="31.1474" height="31.4286" rx="2.11644" fill="#B4D274"/>
<path d="M45.3053 140.143C45.3053 138.486 46.6484 137.143 48.3053 137.143H84.779C86.4358 137.143 87.779 138.486 87.779 140.143V177C87.779 178.657 86.4358 180 84.779 180H48.3053C46.6484 180 45.3053 178.657 45.3053 177V140.143Z" fill="#A1C65D"/>
<rect x="50.9684" y="142.857" width="31.1474" height="31.4286" rx="2.11644" fill="#B4D274"/>
<path d="M90.6105 140.143C90.6105 138.486 91.9537 137.143 93.6105 137.143H130.084C131.741 137.143 133.084 138.486 133.084 140.143V177C133.084 178.657 131.741 180 130.084 180H93.6105C91.9537 180 90.6105 178.657 90.6105 177V140.143Z" fill="#A1C65D"/>
<rect x="96.2737" y="142.857" width="31.1474" height="31.4286" rx="2.11644" fill="#B4D274"/>
<path d="M135.916 140.143C135.916 138.486 137.259 137.143 138.916 137.143H175.39C177.046 137.143 178.39 138.486 178.39 140.143V177C178.39 178.657 177.046 180 175.39 180H138.916C137.259 180 135.916 178.657 135.916 177V140.143Z" fill="#A1C65D"/>
<rect x="141.579" y="142.857" width="31.1474" height="31.4286" rx="2.11644" fill="#B4D274"/>
<path d="M45.3053 3C45.3053 1.34314 46.6484 0 48.3053 0H84.779C86.4358 0 87.779 1.34315 87.779 3V39.8571C87.779 41.514 86.4358 42.8571 84.779 42.8571H48.3053C46.6484 42.8571 45.3053 41.514 45.3053 39.8571V3Z" fill="#E95E50"/>
<rect x="50.9684" y="5.71423" width="31.1474" height="31.4286" rx="2.11644" fill="#EE7A6D"/>
<path d="M45.3053 48.7143C45.3053 47.0574 46.6484 45.7143 48.3053 45.7143H84.779C86.4358 45.7143 87.779 47.0574 87.779 48.7143V85.5714C87.779 87.2283 86.4358 88.5714 84.779 88.5714H48.3053C46.6484 88.5714 45.3053 87.2283 45.3053 85.5714V48.7143Z" fill="#E95E50"/>
<rect x="50.9684" y="51.4286" width="31.1474" height="31.4286" rx="2.11644" fill="#EE7A6D"/>
<path d="M90.6105 48.7143C90.6105 47.0574 91.9537 45.7143 93.6105 45.7143H130.084C131.741 45.7143 133.084 47.0574 133.084 48.7143V85.5714C133.084 87.2283 131.741 88.5714 130.084 88.5714H93.6105C91.9537 88.5714 90.6105 87.2283 90.6105 85.5714V48.7143Z" fill="#E95E50"/>
<rect x="96.2737" y="51.4286" width="31.1474" height="31.4286" rx="2.11644" fill="#EE7A6D"/>
<path d="M90.6105 94.4286C90.6105 92.7717 91.9537 91.4286 93.6105 91.4286H130.084C131.741 91.4286 133.084 92.7717 133.084 94.4286V131.286C133.084 132.943 131.741 134.286 130.084 134.286H93.6105C91.9537 134.286 90.6105 132.943 90.6105 131.286V94.4286Z" fill="#E95E50"/>
<rect x="96.2737" y="97.1428" width="31.1474" height="31.4286" rx="2.11644" fill="#EE7A6D"/>
<path d="M45.3053 94.4286C45.3053 92.7717 46.6484 91.4286 48.3053 91.4286H84.779C86.4358 91.4286 87.779 92.7717 87.779 94.4286V131.286C87.779 132.943 86.4358 134.286 84.779 134.286H48.3053C46.6484 134.286 45.3053 132.943 45.3053 131.286V94.4286Z" fill="#0CB2AF"/>
<rect x="50.9684" y="97.1428" width="31.1474" height="31.4286" rx="2.11644" fill="#2DC3C0"/>
<path d="M0 94.4286C0 92.7717 1.34315 91.4286 3 91.4286H39.4737C41.1305 91.4286 42.4737 92.7717 42.4737 94.4286V131.286C42.4737 132.943 41.1305 134.286 39.4737 134.286H3C1.34315 134.286 0 132.943 0 131.286V94.4286Z" fill="#0CB2AF"/>
<rect x="5.66315" y="97.1428" width="31.1474" height="31.4286" rx="2.11644" fill="#2DC3C0"/>
<path d="M0 48.7143C0 47.0574 1.34315 45.7143 3 45.7143H39.4737C41.1305 45.7143 42.4737 47.0574 42.4737 48.7143V85.5714C42.4737 87.2283 41.1305 88.5714 39.4737 88.5714H3C1.34315 88.5714 0 87.2283 0 85.5714V48.7143Z" fill="#0CB2AF"/>
<rect x="5.66315" y="51.4286" width="31.1474" height="31.4286" rx="2.11644" fill="#2DC3C0"/>
<path d="M0 3C0 1.34314 1.34315 0 3 0H39.4737C41.1305 0 42.4737 1.34315 42.4737 3V39.8571C42.4737 41.514 41.1305 42.8571 39.4737 42.8571H3C1.34315 42.8571 0 41.514 0 39.8571V3Z" fill="#0CB2AF"/>
<rect x="5.66315" y="5.71423" width="31.1474" height="31.4286" rx="2.11644" fill="#2DC3C0"/>
<path d="M135.916 94.4286C135.916 92.7717 137.259 91.4286 138.916 91.4286H175.39C177.046 91.4286 178.39 92.7717 178.39 94.4286V131.286C178.39 132.943 177.046 134.286 175.39 134.286H138.916C137.259 134.286 135.916 132.943 135.916 131.286V94.4286Z" fill="#0CB2AF"/>
<path d="M135.916 94.4286C135.916 92.7717 137.259 91.4286 138.916 91.4286H175.39C177.046 91.4286 178.39 92.7717 178.39 94.4286V131.286C178.39 132.943 177.046 134.286 175.39 134.286H138.916C137.259 134.286 135.916 132.943 135.916 131.286V94.4286Z" fill="#936FAC"/>
<rect x="141.579" y="97.1428" width="31.1474" height="31.4286" rx="2.11644" fill="#2DC3C0"/>
<rect x="141.579" y="97.1428" width="31.1474" height="31.4286" rx="2.11644" fill="#A687BA"/>
<path d="M181.221 140.143C181.221 138.486 182.564 137.143 184.221 137.143H220.695C222.352 137.143 223.695 138.486 223.695 140.143V177C223.695 178.657 222.352 180 220.695 180H184.221C182.564 180 181.221 178.657 181.221 177V140.143Z" fill="#0CB2AF"/>
<path d="M181.221 140.143C181.221 138.486 182.564 137.143 184.221 137.143H220.695C222.352 137.143 223.695 138.486 223.695 140.143V177C223.695 178.657 222.352 180 220.695 180H184.221C182.564 180 181.221 178.657 181.221 177V140.143Z" fill="#936FAC"/>
<rect x="186.884" y="142.857" width="31.1474" height="31.4286" rx="2.11644" fill="#2DC3C0"/>
<rect x="186.884" y="142.857" width="31.1474" height="31.4286" rx="2.11644" fill="#A687BA"/>
<path d="M181.221 94.4286C181.221 92.7717 182.564 91.4286 184.221 91.4286H220.695C222.352 91.4286 223.695 92.7717 223.695 94.4286V131.286C223.695 132.943 222.352 134.286 220.695 134.286H184.221C182.564 134.286 181.221 132.943 181.221 131.286V94.4286Z" fill="#0CB2AF"/>
<path d="M181.221 94.4286C181.221 92.7717 182.564 91.4286 184.221 91.4286H220.695C222.352 91.4286 223.695 92.7717 223.695 94.4286V131.286C223.695 132.943 222.352 134.286 220.695 134.286H184.221C182.564 134.286 181.221 132.943 181.221 131.286V94.4286Z" fill="#936FAC"/>
<rect x="186.884" y="97.1428" width="31.1474" height="31.4286" rx="2.11644" fill="#2DC3C0"/>
<rect x="186.884" y="97.1428" width="31.1474" height="31.4286" rx="2.11644" fill="#A687BA"/>
<path d="M226.526 140.143C226.526 138.486 227.869 137.143 229.526 137.143H266C267.657 137.143 269 138.486 269 140.143V177C269 178.657 267.657 180 266 180H229.526C227.869 180 226.526 178.657 226.526 177V140.143Z" fill="#0CB2AF"/>
<path d="M226.526 140.143C226.526 138.486 227.869 137.143 229.526 137.143H266C267.657 137.143 269 138.486 269 140.143V177C269 178.657 267.657 180 266 180H229.526C227.869 180 226.526 178.657 226.526 177V140.143Z" fill="#936FAC"/>
<rect x="232.189" y="142.857" width="31.1474" height="31.4286" rx="2.11644" fill="#2DC3C0"/>
<rect x="232.189" y="142.857" width="31.1474" height="31.4286" rx="2.11644" fill="#A687BA"/>
<path d="M90.6105 3C90.6105 1.34314 91.9537 0 93.6105 0H130.084C131.741 0 133.084 1.34315 133.084 3V39.8571C133.084 41.514 131.741 42.8571 130.084 42.8571H93.6105C91.9537 42.8571 90.6105 41.514 90.6105 39.8571V3Z" fill="#0CB2AF"/>
<path d="M90.6105 3C90.6105 1.34314 91.9537 0 93.6105 0H130.084C131.741 0 133.084 1.34315 133.084 3V39.8571C133.084 41.514 131.741 42.8571 130.084 42.8571H93.6105C91.9537 42.8571 90.6105 41.514 90.6105 39.8571V3Z" fill="#FAC723"/>
<rect x="96.2737" y="5.71423" width="31.1474" height="31.4286" rx="2.11644" fill="#2DC3C0"/>
<rect x="96.2737" y="5.71423" width="31.1474" height="31.4286" rx="2.11644" fill="#FCD94F"/>
<path d="M135.916 3C135.916 1.34314 137.259 0 138.916 0H175.39C177.046 0 178.39 1.34315 178.39 3V39.8571C178.39 41.514 177.046 42.8571 175.39 42.8571H138.916C137.259 42.8571 135.916 41.514 135.916 39.8571V3Z" fill="#0CB2AF"/>
<path d="M135.916 3C135.916 1.34314 137.259 0 138.916 0H175.39C177.046 0 178.39 1.34315 178.39 3V39.8571C178.39 41.514 177.046 42.8571 175.39 42.8571H138.916C137.259 42.8571 135.916 41.514 135.916 39.8571V3Z" fill="#FAC723"/>
<rect x="141.579" y="5.71423" width="31.1474" height="31.4286" rx="2.11644" fill="#2DC3C0"/>
<rect x="141.579" y="5.71423" width="31.1474" height="31.4286" rx="2.11644" fill="#FCD94F"/>
<path d="M181.221 3C181.221 1.34314 182.564 0 184.221 0H220.695C222.352 0 223.695 1.34315 223.695 3V39.8571C223.695 41.514 222.352 42.8571 220.695 42.8571H184.221C182.564 42.8571 181.221 41.514 181.221 39.8571V3Z" fill="#0CB2AF"/>
<path d="M181.221 3C181.221 1.34314 182.564 0 184.221 0H220.695C222.352 0 223.695 1.34315 223.695 3V39.8571C223.695 41.514 222.352 42.8571 220.695 42.8571H184.221C182.564 42.8571 181.221 41.514 181.221 39.8571V3Z" fill="#FAC723"/>
<rect x="186.884" y="5.71423" width="31.1474" height="31.4286" rx="2.11644" fill="#2DC3C0"/>
<rect x="186.884" y="5.71423" width="31.1474" height="31.4286" rx="2.11644" fill="#FCD94F"/>
<path d="M135.916 48.7143C135.916 47.0574 137.259 45.7143 138.916 45.7143H175.39C177.046 45.7143 178.39 47.0574 178.39 48.7143V85.5714C178.39 87.2283 177.046 88.5714 175.39 88.5714H138.916C137.259 88.5714 135.916 87.2283 135.916 85.5714V48.7143Z" fill="#0CB2AF"/>
<path d="M135.916 48.7143C135.916 47.0574 137.259 45.7143 138.916 45.7143H175.39C177.046 45.7143 178.39 47.0574 178.39 48.7143V85.5714C178.39 87.2283 177.046 88.5714 175.39 88.5714H138.916C137.259 88.5714 135.916 87.2283 135.916 85.5714V48.7143Z" fill="#FAC723"/>
<rect x="141.579" y="51.4286" width="31.1474" height="31.4286" rx="2.11644" fill="#2DC3C0"/>
<rect x="141.579" y="51.4286" width="31.1474" height="31.4286" rx="2.11644" fill="#FCD94F"/>
<path d="M226.526 3C226.526 1.34314 227.869 0 229.526 0H266C267.657 0 269 1.34315 269 3V39.8571C269 41.514 267.657 42.8571 266 42.8571H229.526C227.869 42.8571 226.526 41.514 226.526 39.8571V3Z" fill="#0CB2AF"/>
<path d="M226.526 3C226.526 1.34314 227.869 0 229.526 0H266C267.657 0 269 1.34315 269 3V39.8571C269 41.514 267.657 42.8571 266 42.8571H229.526C227.869 42.8571 226.526 41.514 226.526 39.8571V3Z" fill="#F29222"/>
<rect x="232.189" y="5.71423" width="31.1474" height="31.4286" rx="2.11644" fill="#2DC3C0"/>
<rect x="232.189" y="5.71423" width="31.1474" height="31.4286" rx="2.11644" fill="#F5A53F"/>
<path d="M226.526 48.7143C226.526 47.0574 227.869 45.7143 229.526 45.7143H266C267.657 45.7143 269 47.0574 269 48.7143V85.5714C269 87.2283 267.657 88.5714 266 88.5714H229.526C227.869 88.5714 226.526 87.2283 226.526 85.5714V48.7143Z" fill="#0CB2AF"/>
<path d="M226.526 48.7143C226.526 47.0574 227.869 45.7143 229.526 45.7143H266C267.657 45.7143 269 47.0574 269 48.7143V85.5714C269 87.2283 267.657 88.5714 266 88.5714H229.526C227.869 88.5714 226.526 87.2283 226.526 85.5714V48.7143Z" fill="#F29222"/>
<rect x="232.189" y="51.4286" width="31.1474" height="31.4286" rx="2.11644" fill="#2DC3C0"/>
<rect x="232.189" y="51.4286" width="31.1474" height="31.4286" rx="2.11644" fill="#F5A53F"/>
<path d="M226.526 94.4286C226.526 92.7717 227.869 91.4286 229.526 91.4286H266C267.657 91.4286 269 92.7717 269 94.4286V131.286C269 132.943 267.657 134.286 266 134.286H229.526C227.869 134.286 226.526 132.943 226.526 131.286V94.4286Z" fill="#0CB2AF"/>
<path d="M226.526 94.4286C226.526 92.7717 227.869 91.4286 229.526 91.4286H266C267.657 91.4286 269 92.7717 269 94.4286V131.286C269 132.943 267.657 134.286 266 134.286H229.526C227.869 134.286 226.526 132.943 226.526 131.286V94.4286Z" fill="#F29222"/>
<rect x="232.189" y="97.1428" width="31.1474" height="31.4286" rx="2.11644" fill="#2DC3C0"/>
<rect x="232.189" y="97.1428" width="31.1474" height="31.4286" rx="2.11644" fill="#F5A53F"/>
<path d="M181.221 48.7143C181.221 47.0574 182.564 45.7143 184.221 45.7143H220.695C222.352 45.7143 223.695 47.0574 223.695 48.7143V85.5714C223.695 87.2283 222.352 88.5714 220.695 88.5714H184.221C182.564 88.5714 181.221 87.2283 181.221 85.5714V48.7143Z" fill="#0CB2AF"/>
<path d="M181.221 48.7143C181.221 47.0574 182.564 45.7143 184.221 45.7143H220.695C222.352 45.7143 223.695 47.0574 223.695 48.7143V85.5714C223.695 87.2283 222.352 88.5714 220.695 88.5714H184.221C182.564 88.5714 181.221 87.2283 181.221 85.5714V48.7143Z" fill="#F29222"/>
<rect x="186.884" y="51.4286" width="31.1474" height="31.4286" rx="2.11644" fill="#2DC3C0"/>
<rect x="186.884" y="51.4286" width="31.1474" height="31.4286" rx="2.11644" fill="#F5A53F"/>
<path d="M32.6094 60.6562H23.6562V79H19.5938V60.6562H10.625V56.5938H32.6094V60.6562Z" fill="#293241"/>
<path d="M76.7812 69.8438H63.9531V65.75H76.7812V69.8438ZM78.6094 79H63.9531C63.3906 79 62.776 78.901 62.1094 78.7031C61.4427 78.5052 60.8229 78.1823 60.25 77.7344C59.6875 77.276 59.2135 76.6875 58.8281 75.9688C58.4531 75.2396 58.2656 74.349 58.2656 73.2969V58.6406C58.2656 58.3594 58.3177 58.0938 58.4219 57.8438C58.526 57.5938 58.6667 57.375 58.8438 57.1875C59.0312 57 59.25 56.8542 59.5 56.75C59.75 56.6458 60.0208 56.5938 60.3125 56.5938H78.6094V60.6562H62.3281V73.2969C62.3281 73.8281 62.4688 74.2344 62.75 74.5156C63.0312 74.7969 63.4427 74.9375 63.9844 74.9375H78.6094V79Z" fill="#293241"/>
<path d="M122.609 60.6562H113.656V79H109.594V60.6562H100.625V56.5938H122.609V60.6562Z" fill="#293241"/>
<path d="M170.75 64.125C170.75 65.0521 170.635 65.8802 170.406 66.6094C170.177 67.3385 169.865 67.9844 169.469 68.5469C169.083 69.099 168.635 69.5729 168.125 69.9688C167.615 70.3646 167.078 70.6927 166.516 70.9531C165.964 71.2031 165.401 71.3854 164.828 71.5C164.266 71.6146 163.734 71.6719 163.234 71.6719L171.719 79H165.438L156.969 71.6719H154.047V67.6094H163.234C163.745 67.5677 164.208 67.4635 164.625 67.2969C165.052 67.1198 165.417 66.8854 165.719 66.5938C166.031 66.3021 166.271 65.9531 166.438 65.5469C166.604 65.1302 166.688 64.6562 166.688 64.125V61.5625C166.688 61.3333 166.656 61.1615 166.594 61.0469C166.542 60.9219 166.469 60.8333 166.375 60.7812C166.292 60.7188 166.198 60.6823 166.094 60.6719C166 60.6615 165.911 60.6562 165.828 60.6562H152.422V79H148.359V58.6406C148.359 58.3594 148.411 58.0938 148.516 57.8438C148.62 57.5938 148.76 57.375 148.938 57.1875C149.125 57 149.344 56.8542 149.594 56.75C149.844 56.6458 150.115 56.5938 150.406 56.5938H165.828C166.734 56.5938 167.5 56.7604 168.125 57.0938C168.75 57.4167 169.255 57.8281 169.641 58.3281C170.036 58.8177 170.318 59.349 170.484 59.9219C170.661 60.4948 170.75 61.0312 170.75 61.5312V64.125Z" fill="#293241"/>
<path d="M205.453 79H201.391V56.5938H205.453V79Z" fill="#293241"/>
<path d="M259.891 72.4062C259.891 73.2083 259.786 73.9323 259.578 74.5781C259.38 75.2135 259.115 75.776 258.781 76.2656C258.448 76.7552 258.057 77.1719 257.609 77.5156C257.161 77.8594 256.698 78.1406 256.219 78.3594C255.74 78.5781 255.25 78.7396 254.75 78.8438C254.26 78.9479 253.797 79 253.359 79H237.688V74.9375H253.359C254.141 74.9375 254.745 74.7083 255.172 74.25C255.609 73.7917 255.828 73.1771 255.828 72.4062C255.828 72.0312 255.771 71.6875 255.656 71.375C255.542 71.0625 255.375 70.7917 255.156 70.5625C254.948 70.3333 254.688 70.1562 254.375 70.0312C254.073 69.9062 253.734 69.8438 253.359 69.8438H244.016C243.359 69.8438 242.651 69.7292 241.891 69.5C241.13 69.2604 240.422 68.8802 239.766 68.3594C239.12 67.8385 238.578 67.1562 238.141 66.3125C237.714 65.4688 237.5 64.4375 237.5 63.2188C237.5 62 237.714 60.974 238.141 60.1406C238.578 59.2969 239.12 58.6146 239.766 58.0938C240.422 57.5625 241.13 57.1823 241.891 56.9531C242.651 56.7135 243.359 56.5938 244.016 56.5938H257.844V60.6562H244.016C243.245 60.6562 242.641 60.8906 242.203 61.3594C241.776 61.8281 241.562 62.4479 241.562 63.2188C241.562 64 241.776 64.6198 242.203 65.0781C242.641 65.526 243.245 65.75 244.016 65.75H253.359H253.391C253.828 65.7604 254.292 65.8229 254.781 65.9375C255.271 66.0417 255.755 66.2083 256.234 66.4375C256.724 66.6667 257.188 66.9583 257.625 67.3125C258.062 67.6562 258.448 68.0729 258.781 68.5625C259.125 69.0521 259.396 69.6146 259.594 70.25C259.792 70.8854 259.891 71.6042 259.891 72.4062Z" fill="#293241"/>
</svg>
