<svg width="50" height="50" viewBox="0 0 50 50" fill="none" xmlns="http://www.w3.org/2000/svg">
<g filter="url(#filter0_i_30_241)">
<path d="M27.1484 18.2188C26.8359 18.1875 26.5234 18.1562 26.2109 18.0938C24.2734 17.75 22.4609 16.875 20.9922 15.5312C16.7109 12.2344 11.6016 8.07812 8.99219 3.375H8.44531C6.17969 3.375 4.75781 5.8125 5.86719 7.78125C7.92969 11.4219 10.8359 14.5156 14.3359 16.7969C15.5234 17.7188 21.4391 21.2797 22.9391 21.2797L27.1484 18.2188Z" fill="url(#paint0_radial_30_241)"/>
<path d="M27.1484 18.2188C26.8359 18.1875 26.5234 18.1562 26.2109 18.0938C24.2734 17.75 22.4609 16.875 20.9922 15.5312C16.7109 12.2344 11.6016 8.07812 8.99219 3.375H8.44531C6.17969 3.375 4.75781 5.8125 5.86719 7.78125C7.92969 11.4219 10.8359 14.5156 14.3359 16.7969C15.5234 17.7188 21.4391 21.2797 22.9391 21.2797L27.1484 18.2188Z" fill="url(#paint1_radial_30_241)"/>
</g>
<path d="M25.3203 11.5156L25.5953 13.4516L23.1531 15.3187L15.3078 3.35938H18.7109C19.7578 3.35938 20.7266 3.90625 21.2422 4.8125L25.3203 11.5156Z" fill="url(#paint2_linear_30_241)"/>
<path d="M30.1281 13.525L27.5187 18.2344H31.6484C33.164 18.2344 30.4609 20.15 31.6484 19.2281C35.4875 17.6187 42.2266 11.4375 44.2734 7.79687C45.3984 5.8125 43.9609 3.375 41.7109 3.375H41.1641C37.739 6.95312 33.7812 10.5391 30.1281 13.525Z" fill="url(#paint3_linear_30_241)"/>
<path d="M25.0234 18.1703C24.8713 18.188 24.7203 18.2042 24.5703 18.2188L24.2578 18.5938L24.5859 18.0828C22.6616 17.7337 20.8745 16.8494 19.4297 15.5312C15.1484 12.2344 11.2766 8.0625 8.66718 3.35938H15.5234L25.0234 18.1703Z" fill="url(#paint4_linear_30_241)"/>
<path d="M25.0234 18.1703C24.8713 18.188 24.7203 18.2042 24.5703 18.2188L24.2578 18.5938L24.5859 18.0828C22.6616 17.7337 20.8745 16.8494 19.4297 15.5312C15.1484 12.2344 11.2766 8.0625 8.66718 3.35938H15.5234L25.0234 18.1703Z" fill="url(#paint5_linear_30_241)"/>
<path d="M25.9515 15.9547L26.2328 17.9391C27.9073 17.5225 29.4517 16.6956 30.7265 15.5328C35.0078 12.2359 38.5547 8.07969 41.164 3.37656H34.0234L25.9515 15.9547Z" fill="url(#paint6_linear_30_241)"/>
<path d="M25.9515 15.9547L26.2328 17.9391C27.9073 17.5225 29.4517 16.6956 30.7265 15.5328C35.0078 12.2359 38.5547 8.07969 41.164 3.37656H34.0234L25.9515 15.9547Z" fill="url(#paint7_linear_30_241)"/>
<path d="M25.6578 18.2188H25.5859L25.8984 18.5937L25.6578 18.2188Z" fill="url(#paint8_linear_30_241)"/>
<path d="M25.6578 18.2188H25.5859L25.8984 18.5937L25.6578 18.2188Z" fill="url(#paint9_linear_30_241)"/>
<path d="M34.6172 3.375H31.4297C30.3828 3.375 29.4297 3.92187 28.8984 4.82812L20.7422 18.2344H25.0859L34.6172 3.375Z" fill="url(#paint10_linear_30_241)"/>
<path d="M34.6172 3.375H31.4297C30.3828 3.375 29.4297 3.92187 28.8984 4.82812L20.7422 18.2344H25.0859L34.6172 3.375Z" fill="url(#paint11_linear_30_241)"/>
<path d="M25.0578 47.0219C33.7219 47.0219 40.7453 39.8234 40.7453 30.9438C40.7453 22.0641 33.7219 14.8656 25.0578 14.8656C16.3937 14.8656 9.3703 22.0641 9.3703 30.9438C9.3703 39.8234 16.3937 47.0219 25.0578 47.0219Z" fill="url(#paint12_linear_30_241)"/>
<path d="M25.0578 47.0219C33.7219 47.0219 40.7453 39.8234 40.7453 30.9438C40.7453 22.0641 33.7219 14.8656 25.0578 14.8656C16.3937 14.8656 9.3703 22.0641 9.3703 30.9438C9.3703 39.8234 16.3937 47.0219 25.0578 47.0219Z" fill="url(#paint13_linear_30_241)"/>
<path d="M25.0578 44.1312C32.1594 44.1312 37.9172 38.2266 37.9172 30.9437C37.9172 23.6609 32.1594 17.7562 25.0578 17.7562C17.9562 17.7562 12.1984 23.6609 12.1984 30.9437C12.1984 38.2281 17.9562 44.1312 25.0578 44.1312Z" fill="url(#paint14_linear_30_241)"/>
<path d="M25.0578 44.1312C32.1594 44.1312 37.9172 38.2266 37.9172 30.9437C37.9172 23.6609 32.1594 17.7562 25.0578 17.7562C17.9562 17.7562 12.1984 23.6609 12.1984 30.9437C12.1984 38.2281 17.9562 44.1312 25.0578 44.1312Z" fill="url(#paint15_radial_30_241)"/>
<path d="M25.0578 44.1312C32.1594 44.1312 37.9172 38.2266 37.9172 30.9437C37.9172 23.6609 32.1594 17.7562 25.0578 17.7562C17.9562 17.7562 12.1984 23.6609 12.1984 30.9437C12.1984 38.2281 17.9562 44.1312 25.0578 44.1312Z" fill="url(#paint16_radial_30_241)"/>
<path d="M25.0735 45.0844C21.386 45.0844 17.9172 43.6156 15.3235 40.9438C12.7133 38.2714 11.2596 34.6793 11.2766 30.9438C11.2766 27.1625 12.7141 23.6156 15.3235 20.9438C16.5895 19.6353 18.1058 18.5949 19.7821 17.8843C21.4585 17.1738 23.2606 16.8076 25.0813 16.8076C26.902 16.8076 28.7041 17.1738 30.3804 17.8843C32.0567 18.5949 33.573 19.6353 34.8391 20.9438C40.2141 26.4594 40.2141 35.4281 34.8391 40.9438C32.2141 43.6156 28.7453 45.0844 25.0735 45.0844ZM25.0578 18.725C22.011 18.725 18.9485 19.9125 16.636 22.3031C14.3861 24.6148 13.1347 27.718 13.1516 30.9438C13.1516 34.2094 14.386 37.2719 16.636 39.5844C17.7269 40.7166 19.0351 41.6171 20.4822 42.2319C21.9293 42.8467 23.4855 43.1632 25.0578 43.1625C28.2453 43.1625 31.2297 41.8969 33.4797 39.5844C38.1203 34.8188 38.1203 27.0688 33.4797 22.3031C32.3899 21.1695 31.0819 20.268 29.6346 19.6531C28.1872 19.0382 26.6304 18.7225 25.0578 18.725Z" fill="url(#paint17_linear_30_241)"/>
<g filter="url(#filter1_ii_30_241)">
<path d="M26.011 24.6156L27.3078 27.3031C27.4641 27.6156 27.761 27.85 28.1047 27.8969L30.9953 28.3344C31.8547 28.4594 32.2141 29.5531 31.5735 30.1781L29.5735 32.1781C29.2766 32.475 29.1828 32.9125 29.3078 33.3187L30.2297 35.9906C30.5422 36.8812 29.6672 37.725 28.8078 37.35L25.4641 35.85C25.3319 35.7885 25.1879 35.7567 25.0422 35.7567C24.8965 35.7567 24.7525 35.7885 24.6203 35.85L21.2766 37.35C20.4328 37.725 19.5422 36.8812 19.8547 35.9906L20.7766 33.3187C20.9172 32.9125 20.8078 32.475 20.511 32.1781L18.511 30.1781C17.886 29.5531 18.2297 28.4594 19.0891 28.3344L21.9797 27.8969C22.3235 27.85 22.6203 27.6313 22.7766 27.3031L24.0735 24.6156C24.4953 23.8031 25.6203 23.8031 26.011 24.6156Z" fill="url(#paint18_linear_30_241)"/>
<path d="M26.011 24.6156L27.3078 27.3031C27.4641 27.6156 27.761 27.85 28.1047 27.8969L30.9953 28.3344C31.8547 28.4594 32.2141 29.5531 31.5735 30.1781L29.5735 32.1781C29.2766 32.475 29.1828 32.9125 29.3078 33.3187L30.2297 35.9906C30.5422 36.8812 29.6672 37.725 28.8078 37.35L25.4641 35.85C25.3319 35.7885 25.1879 35.7567 25.0422 35.7567C24.8965 35.7567 24.7525 35.7885 24.6203 35.85L21.2766 37.35C20.4328 37.725 19.5422 36.8812 19.8547 35.9906L20.7766 33.3187C20.9172 32.9125 20.8078 32.475 20.511 32.1781L18.511 30.1781C17.886 29.5531 18.2297 28.4594 19.0891 28.3344L21.9797 27.8969C22.3235 27.85 22.6203 27.6313 22.7766 27.3031L24.0735 24.6156C24.4953 23.8031 25.6203 23.8031 26.011 24.6156Z" fill="url(#paint19_radial_30_241)"/>
</g>
<defs>
<filter id="filter0_i_30_241" x="5.48248" y="3.3" width="21.741" height="17.9797" filterUnits="userSpaceOnUse" color-interpolation-filters="sRGB">
<feFlood flood-opacity="0" result="BackgroundImageFix"/>
<feBlend mode="normal" in="SourceGraphic" in2="BackgroundImageFix" result="shape"/>
<feColorMatrix in="SourceAlpha" type="matrix" values="0 0 0 0 0 0 0 0 0 0 0 0 0 0 0 0 0 0 127 0" result="hardAlpha"/>
<feOffset dx="0.075" dy="-0.075"/>
<feGaussianBlur stdDeviation="0.125"/>
<feComposite in2="hardAlpha" operator="arithmetic" k2="-1" k3="1"/>
<feColorMatrix type="matrix" values="0 0 0 0 0.254902 0 0 0 0 0.329412 0 0 0 0 0.729412 0 0 0 1 0"/>
<feBlend mode="normal" in2="shape" result="effect1_innerShadow_30_241"/>
</filter>
<filter id="filter1_ii_30_241" x="18.0413" y="23.8562" width="13.9337" height="13.5851" filterUnits="userSpaceOnUse" color-interpolation-filters="sRGB">
<feFlood flood-opacity="0" result="BackgroundImageFix"/>
<feBlend mode="normal" in="SourceGraphic" in2="BackgroundImageFix" result="shape"/>
<feColorMatrix in="SourceAlpha" type="matrix" values="0 0 0 0 0 0 0 0 0 0 0 0 0 0 0 0 0 0 127 0" result="hardAlpha"/>
<feOffset dx="-0.15" dy="-0.15"/>
<feGaussianBlur stdDeviation="0.1875"/>
<feComposite in2="hardAlpha" operator="arithmetic" k2="-1" k3="1"/>
<feColorMatrix type="matrix" values="0 0 0 0 0.290196 0 0 0 0 0.14902 0 0 0 0 0.14902 0 0 0 1 0"/>
<feBlend mode="normal" in2="shape" result="effect1_innerShadow_30_241"/>
<feColorMatrix in="SourceAlpha" type="matrix" values="0 0 0 0 0 0 0 0 0 0 0 0 0 0 0 0 0 0 127 0" result="hardAlpha"/>
<feOffset dx="0.1" dy="-0.1"/>
<feGaussianBlur stdDeviation="0.0375"/>
<feComposite in2="hardAlpha" operator="arithmetic" k2="-1" k3="1"/>
<feColorMatrix type="matrix" values="0 0 0 0 0.517647 0 0 0 0 0.372549 0 0 0 0 0.34902 0 0 0 1 0"/>
<feBlend mode="normal" in2="effect1_innerShadow_30_241" result="effect2_innerShadow_30_241"/>
</filter>
<radialGradient id="paint0_radial_30_241" cx="0" cy="0" r="1" gradientUnits="userSpaceOnUse" gradientTransform="translate(16.3152 9.16523) rotate(124.323) scale(10.1372 20.1208)">
<stop offset="0.361" stop-color="#3FA0F7"/>
<stop offset="1" stop-color="#2F60C2"/>
</radialGradient>
<radialGradient id="paint1_radial_30_241" cx="0" cy="0" r="1" gradientUnits="userSpaceOnUse" gradientTransform="translate(16.7719 19.1687) rotate(-90) scale(5.03741 6.09577)">
<stop stop-color="#3258BF"/>
<stop offset="1" stop-color="#3258BF" stop-opacity="0"/>
</radialGradient>
<linearGradient id="paint2_linear_30_241" x1="17.6937" y1="3.35937" x2="25.5953" y2="15.3188" gradientUnits="userSpaceOnUse">
<stop stop-color="#F53F56"/>
<stop offset="1" stop-color="#EA3586"/>
</linearGradient>
<linearGradient id="paint3_linear_30_241" x1="40.0953" y1="6.05312" x2="39.2937" y2="16.2297" gradientUnits="userSpaceOnUse">
<stop stop-color="#FD4058"/>
<stop offset="1" stop-color="#F62E9E"/>
</linearGradient>
<linearGradient id="paint4_linear_30_241" x1="20.7922" y1="4.68125" x2="12.1312" y2="18.2812" gradientUnits="userSpaceOnUse">
<stop stop-color="#E3D4F3"/>
<stop offset="1" stop-color="#E3C2F5"/>
</linearGradient>
<linearGradient id="paint5_linear_30_241" x1="21.7344" y1="2.82969" x2="21.7344" y2="5.42188" gradientUnits="userSpaceOnUse">
<stop stop-color="#D3CCD9"/>
<stop offset="1" stop-color="#D3CCD9" stop-opacity="0"/>
</linearGradient>
<linearGradient id="paint6_linear_30_241" x1="36.7031" y1="4.69531" x2="27.7594" y2="17.5859" gradientUnits="userSpaceOnUse">
<stop stop-color="#E3D4F3"/>
<stop offset="1" stop-color="#E3C2F5"/>
</linearGradient>
<linearGradient id="paint7_linear_30_241" x1="37.5656" y1="2.84531" x2="37.5656" y2="5.43594" gradientUnits="userSpaceOnUse">
<stop stop-color="#D3CCD9"/>
<stop offset="1" stop-color="#D3CCD9" stop-opacity="0"/>
</linearGradient>
<linearGradient id="paint8_linear_30_241" x1="36.7032" y1="4.69533" x2="27.7594" y2="17.586" gradientUnits="userSpaceOnUse">
<stop stop-color="#E3D4F3"/>
<stop offset="1" stop-color="#E3C2F5"/>
</linearGradient>
<linearGradient id="paint9_linear_30_241" x1="37.5657" y1="2.84533" x2="37.5657" y2="5.43595" gradientUnits="userSpaceOnUse">
<stop stop-color="#D3CCD9"/>
<stop offset="1" stop-color="#D3CCD9" stop-opacity="0"/>
</linearGradient>
<linearGradient id="paint10_linear_30_241" x1="32.7031" y1="4.23906" x2="25.4766" y2="16.9344" gradientUnits="userSpaceOnUse">
<stop stop-color="#3EA0F4"/>
<stop offset="1" stop-color="#437EE0"/>
</linearGradient>
<linearGradient id="paint11_linear_30_241" x1="23.5828" y1="11.4344" x2="25.0734" y2="12.4281" gradientUnits="userSpaceOnUse">
<stop stop-color="#6C65C0"/>
<stop offset="1" stop-color="#6C65C0" stop-opacity="0"/>
</linearGradient>
<linearGradient id="paint12_linear_30_241" x1="33.4437" y1="25.2453" x2="20.8453" y2="46.5344" gradientUnits="userSpaceOnUse">
<stop stop-color="#F4C654"/>
<stop offset="1" stop-color="#DC9729"/>
</linearGradient>
<linearGradient id="paint13_linear_30_241" x1="19.5766" y1="47.8031" x2="23.2875" y2="26.8078" gradientUnits="userSpaceOnUse">
<stop stop-color="#FA8547"/>
<stop offset="1" stop-color="#FA8547" stop-opacity="0"/>
</linearGradient>
<linearGradient id="paint14_linear_30_241" x1="19.1125" y1="29.2719" x2="38.2953" y2="29.2719" gradientUnits="userSpaceOnUse">
<stop stop-color="#FAA945"/>
<stop offset="1" stop-color="#EC9936"/>
</linearGradient>
<radialGradient id="paint15_radial_30_241" cx="0" cy="0" r="1" gradientUnits="userSpaceOnUse" gradientTransform="translate(30.0437 30.9437) rotate(180) scale(17.1558 14.9916)">
<stop offset="0.844" stop-color="#F7B44D" stop-opacity="0"/>
<stop offset="1" stop-color="#F7B44D"/>
</radialGradient>
<radialGradient id="paint16_radial_30_241" cx="0" cy="0" r="1" gradientUnits="userSpaceOnUse" gradientTransform="translate(21.7187 30.9437) scale(16.198 14.5999)">
<stop offset="0.826" stop-color="#D2801F" stop-opacity="0"/>
<stop offset="1" stop-color="#D2801F"/>
</radialGradient>
<linearGradient id="paint17_linear_30_241" x1="37.6438" y1="28.475" x2="25.0735" y2="28.475" gradientUnits="userSpaceOnUse">
<stop stop-color="#F9A842"/>
<stop offset="1" stop-color="#FAA742"/>
</linearGradient>
<linearGradient id="paint18_linear_30_241" x1="23.5656" y1="29.8047" x2="28.75" y2="37.8781" gradientUnits="userSpaceOnUse">
<stop stop-color="#864B60"/>
<stop offset="1" stop-color="#5D3247"/>
</linearGradient>
<radialGradient id="paint19_radial_30_241" cx="0" cy="0" r="1" gradientUnits="userSpaceOnUse" gradientTransform="translate(28.7569 26.4177) rotate(130.746) scale(4.18927 5.71336)">
<stop offset="0.201" stop-color="#602543"/>
<stop offset="1" stop-color="#602543" stop-opacity="0"/>
</radialGradient>
</defs>
</svg>
