<svg width="66" height="66" viewBox="0 0 66 66" fill="none" xmlns="http://www.w3.org/2000/svg">
<g clip-path="url(#clip0_29_178)">
<path d="M8.6831 14.4427C3.6506 9.41016 1.83044 1.83047 1.83044 1.83047L49.5825 49.5825L46.7001 52.4648C46.7001 52.4597 13.7156 19.4752 8.6831 14.4427Z" fill="#82AEC0"/>
<path d="M14.4426 8.68313C9.41013 3.65063 1.83044 1.83047 1.83044 1.83047L49.5825 49.5825L52.4648 46.7002L14.4426 8.68313Z" fill="#C9E3E6"/>
<path d="M50.5777 50.5725L52.8361 48.3141L60.5344 57.1725L59.7146 59.7145L57.1725 60.5344L48.3141 52.8361L50.5777 50.5725Z" fill="#874D36"/>
<path d="M50.5777 50.5725L52.8413 48.3089L60.5396 57.1673C60.5396 57.1673 61.2769 58.147 59.7197 59.7042C58.1625 61.2614 57.1828 60.5241 57.1828 60.5241L48.3141 52.8361L50.5777 50.5725Z" fill="#693928"/>
<path d="M57.4458 58.5905C57.322 58.6678 56.8528 58.8947 56.2753 58.3997C55.9504 58.1212 55.9144 57.8119 56.2805 57.5901C57.0848 57.1003 58.1161 55.8164 58.5595 54.9244L59.6372 56.167C59.0751 57.1158 58.3687 58.0284 57.4458 58.5905ZM55.2028 55.8937C55.079 55.9711 54.5067 56.2701 54.0736 56.0123C53.46 55.6462 53.5683 55.1822 53.9344 54.9605C54.7387 54.4706 55.8886 53.2692 56.3939 52.4236L57.4509 53.6405C56.8012 54.5686 56.1 55.3472 55.2028 55.8937ZM52.4184 53.9292C52.2947 54.0066 51.8048 54.1355 51.3098 53.79C50.9901 53.5631 50.8819 53.0526 51.2479 52.8309C52.1709 52.2741 53.5219 50.8561 54.1458 49.8506L55.1976 51.0623C54.4242 52.1864 53.2847 53.3981 52.4184 53.9292Z" fill="#A65F3E"/>
<path d="M56.9663 62.1328L57.1725 60.5344C57.1725 60.5344 57.9717 60.5395 59.2556 59.2556C60.5396 57.9717 60.5344 57.1725 60.5344 57.1725L62.1328 56.9662C63.3085 56.76 64.3191 57.8119 64.1541 58.9823C63.9942 60.0806 63.3806 61.3233 62.3546 62.3545C61.3285 63.3806 60.0858 63.9942 58.9824 64.1541C57.8171 64.3191 56.8167 63.3033 56.9663 62.1328ZM40.4096 57.8737L45.8236 51.2531L48.541 48.5358L51.2583 45.8184L57.8789 40.4044C58.1986 40.1362 58.6678 40.1569 58.9669 40.4508C59.266 40.7498 59.2814 41.2345 58.9978 41.5542C57.5644 43.1527 54.6769 46.4991 53.3827 47.8758C52.4752 48.8452 51.5264 49.8094 50.6705 50.6602C49.8197 51.5109 48.8503 52.4597 47.8861 53.3723C46.5094 54.6666 43.163 57.5541 41.5646 58.9875C41.2449 59.2711 40.7653 59.2556 40.4611 58.9566C40.1569 58.6627 40.1414 58.1934 40.4096 57.8737Z" fill="#9E740B"/>
<path d="M57.3169 14.4427C62.3494 9.41016 64.1695 1.83047 64.1695 1.83047L16.4175 49.5825L19.2998 52.4648C19.2998 52.4597 52.2844 19.4752 57.3169 14.4427Z" fill="#82AEC0"/>
<path d="M51.5573 8.68313C56.5898 3.65063 64.1695 1.83047 64.1695 1.83047L16.4175 49.5825L13.5352 46.7002L51.5573 8.68313Z" fill="#C9E3E6"/>
<path d="M15.4224 50.5725L13.1639 48.3141L5.46564 57.1725L6.28548 59.7145L8.82751 60.5344L17.6859 52.8361L15.4224 50.5725Z" fill="#874D36"/>
<path d="M15.4223 50.5725L13.1587 48.3089L5.4656 57.1725C5.4656 57.1725 4.67153 58.0955 6.28544 59.7094C7.89935 61.3233 8.82231 60.5292 8.82231 60.5292L17.6808 52.8309L15.4223 50.5725Z" fill="#693928"/>
<path d="M9.03378 62.1328L8.82753 60.5344C8.82753 60.5344 8.02831 60.5395 6.7444 59.2556C5.4605 57.9717 5.46566 57.1725 5.46566 57.1725L3.86722 56.9662C2.69675 56.8167 1.68097 57.8119 1.84597 58.9823C2.00581 60.0806 2.61941 61.3233 3.6455 62.3545C4.67159 63.3806 5.91425 63.9942 7.01769 64.1541C8.183 64.3191 9.18331 63.3033 9.03378 62.1328ZM25.5905 57.8737L20.1764 51.2531L17.4591 48.5358L14.7417 45.8184L8.12112 40.4044C7.80144 40.1362 7.33222 40.1569 7.03315 40.4508C6.73409 40.7498 6.71862 41.2345 7.00222 41.5542C8.43566 43.1527 11.3232 46.4991 12.6174 47.8758C13.5249 48.8452 14.4736 49.8094 15.3296 50.6602C16.1803 51.5109 17.1497 52.4597 18.1139 53.3723C19.4907 54.6666 22.8371 57.5541 24.4355 58.9875C24.7552 59.2711 25.2347 59.2556 25.5389 58.9566C25.8432 58.6627 25.8586 58.1934 25.5905 57.8737Z" fill="#9E740B"/>
<path d="M2.62968 58.7091C2.86001 59.6005 3.37845 60.3908 4.10437 60.9572C5.13562 61.7719 5.73374 61.1531 5.26968 60.2147C4.89327 59.4619 4.60968 59.0855 4.04765 58.0852C3.51656 57.1416 2.37702 57.6984 2.62968 58.7091ZM9.00796 42.6319C8.56452 42.1111 9.26062 41.9306 10.3022 42.8175C11.3437 43.7044 15.7266 47.4478 15.7266 47.4478C17.1342 48.7266 16.4227 50.0466 16.4227 50.0466C15.2831 49.1442 9.4514 43.1526 9.00796 42.6319Z" fill="#E2A610"/>
<path d="M8.53357 58.5905C8.65732 58.6678 9.12654 58.8947 9.70404 58.3997C10.0289 58.1212 10.065 57.8119 9.69888 57.5901C8.89451 57.1003 7.86326 55.8164 7.41982 54.9244L6.34216 56.167C6.90935 57.1158 7.6106 58.0284 8.53357 58.5905ZM10.7817 55.8937C10.9054 55.9711 11.4778 56.2701 11.9109 56.0123C12.5245 55.6462 12.4162 55.1822 12.0501 54.9605C11.2458 54.4706 10.0959 53.2692 9.5906 52.4236L8.53357 53.6405C9.1781 54.5686 9.88451 55.3472 10.7817 55.8937ZM13.5609 53.9292C13.6847 54.0066 14.1745 54.1355 14.6695 53.79C14.9892 53.5631 15.0975 53.0526 14.7314 52.8309C13.8084 52.2741 12.4575 50.8561 11.8336 49.8506L10.7817 51.0623C11.5551 52.1864 12.6947 53.3981 13.5609 53.9292Z" fill="#A65F3E"/>
<path d="M33 38.7595L35.872 41.6367L40.6983 34.9388L38.7595 33L33 38.7595Z" fill="#2F7889"/>
<path d="M52.7278 45.2873C51.7584 46.0917 53.4858 46.3547 54.6923 45.1378L57.1158 42.7298C57.7191 42.1162 57.7191 41.0644 56.6001 41.9409L52.7278 45.2873ZM61.2305 59.2659C60.885 59.8022 61.0345 60.3333 61.5966 60.3384C61.9987 60.3436 62.4319 60.0445 62.633 59.8434C62.9269 59.5495 63.1383 59.3123 63.2826 58.7091C63.4734 57.8995 62.5969 57.0848 62.0812 57.8634C61.6223 58.5544 61.5759 58.7348 61.2305 59.2659Z" fill="#E2A610"/>
</g>
<defs>
<clipPath id="clip0_29_178">
<rect width="66" height="66" fill="white"/>
</clipPath>
</defs>
</svg>
