<svg width="30" height="30" viewBox="0 0 30 30" fill="none" xmlns="http://www.w3.org/2000/svg">
<path d="M15 3.125C13.542 3.1246 12.1254 3.60973 10.9737 4.50382C9.8221 5.39792 9.00098 6.65006 8.63999 8.06264C8.279 9.47523 8.39869 10.9678 8.98017 12.3048C9.56165 13.6418 10.5718 14.7471 11.8512 15.4463C9.57007 16.1123 7.55822 17.4832 6.10388 19.3626C4.64953 21.242 3.8273 23.5335 3.75497 25.9088C3.75114 26.0319 3.77161 26.1546 3.81521 26.2698C3.85882 26.385 3.9247 26.4905 4.0091 26.5802C4.09349 26.6699 4.19475 26.7422 4.30707 26.7928C4.4194 26.8433 4.54059 26.8713 4.66372 26.875H25.3375C25.5859 26.8675 25.8212 26.7616 25.9916 26.5807C26.1621 26.3997 26.2536 26.1585 26.2462 25.91C26.1739 23.5347 25.3517 21.2432 23.8973 19.3638C22.443 17.4844 20.4311 16.1135 18.15 15.4475C19.4301 14.7486 20.441 13.6432 21.0229 12.3058C21.6048 10.9684 21.7246 9.47526 21.3634 8.06219C21.0022 6.64913 20.1805 5.39666 19.0282 4.50259C17.8758 3.60853 16.4585 3.12381 15 3.125Z" fill="#293241"/>
</svg>
