<svg width="74" height="79" viewBox="0 0 74 79" fill="none" xmlns="http://www.w3.org/2000/svg">
<path d="M69.4927 33.098C74.5707 35.8528 74.5707 43.1424 69.4927 45.8923L11.2927 77.4173C10.1844 78.0161 8.93962 78.3169 7.68018 78.2901C6.42074 78.2634 5.18983 77.91 4.10794 77.2647C3.02606 76.6194 2.13028 75.7042 1.5083 74.6087C0.886315 73.5133 0.559448 72.2751 0.559692 71.0153L0.559689 7.97504C0.55983 6.71503 0.88722 5.47667 1.5098 4.38122C2.13238 3.28577 3.02879 2.3708 4.11126 1.72592C5.19373 1.08103 6.42513 0.728345 7.68487 0.702397C8.9446 0.676448 10.1895 0.978124 11.2976 1.57789L69.4927 33.098Z" fill="#FFF5EE"/>
</svg>
